<?xml version="1.0" encoding="utf-8"?>
<!-- Generator: Adobe Illustrator 19.0.0, SVG Export Plug-In . SVG Version: 6.00 Build 0)  -->
<svg version="1.1" id="Layer_1" xmlns="http://www.w3.org/2000/svg" xmlns:xlink="http://www.w3.org/1999/xlink" x="0px" y="0px"
	 viewBox="-112 106 36 45" style="enable-background:new -112 106 36 45;" xml:space="preserve">
<style type="text/css">
	.st0{fill:#EDBB3F;}
	.st1{fill:#FFCF5B;}
	.st2{fill:#F5C142;}
	.st3{opacity:0.15;enable-background:new    ;}
	.st4{fill:#404040;}
</style>
<g id="icon-folder">
	<path class="st0" d="M-89.5,106h12.3c0.7,0,1.3,0.6,1.3,1.3v42.5c0,0.7-0.6,1.3-1.3,1.3h-12.3"/>
	<path class="st1" d="M-110.8,106c-0.7,0-1.3,0.6-1.3,1.3v42.5c0,0.7,0.6,1.3,1.3,1.3h29.5c0.7,0,1.3-0.6,1.3-1.3v-34.3l-9.5-9.5
		H-110.8z"/>
	<polygon class="st2" points="-89.5,106 -89.5,115.5 -80,115.5 	"/>
	<polygon class="st3" points="-80,125 -80,115.5 -89.5,115.5 	"/>
</g>
<polygon class="st4" points="-102.5,143 -102.5,128.5 -88,128.5 "/>
</svg>
