<?xml version="1.0" encoding="utf-8"?>
<svg version="1.2" width="0" height="0" xmlns="http://www.w3.org/2000/svg" xmlns:xlink="http://www.w3.org/1999/xlink">
  <defs>

    <symbol id="folderA" viewBox="0 0 256 256">
      <path d="M215.3,251.7h-179c-5.5,0-10-4.5-10-10v-223c0-5.5,4.5-10,10-10h159c5.5,0,10,4.5,10,10v104.8c0,8.2,2.6,16.1,7.5,22.6l5.1,6.8c4.9,6.6,7.5,14.5,7.5,22.6v66.1C225.3,247.2,220.9,251.7,215.3,251.7z"/>
    </symbol>

    <symbol id="svgConfigIcon" viewBox="0 0 256 256">
      <path d="M238.9,160.3l-23.6-19.7c0.6-4.1,1-8.2,1-12.5c0-4.3-0.4-8.4-1-12.5l23.6-19.7c6.8-3.9,9.1-12.6,5.2-19.4
			  l-14.2-24.6c-3.9-6.8-12.6-9.1-19.4-5.2l-28.9,10.6c-6.6-5.2-13.9-9.4-21.7-12.6l-5.3-30.3c0-7.9-6.4-14.2-14.2-14.2H112
			  c-7.9,0-14.2,6.4-14.2,14.2l-5.3,30.3c-7.8,3.2-15.1,7.4-21.7,12.6L41.9,46.5c-6.8-3.9-15.5-1.6-19.4,5.2L8.2,76.3
			  c-3.9,6.8-1.6,15.5,5.2,19.4l23.6,19.7c-0.6,4.1-1,8.3-1,12.5c0,4.3,0.4,8.4,1,12.5l-23.6,19.7c-6.8,3.9-9.1,12.6-5.2,19.4
			  l14.2,24.6c3.9,6.8,12.6,9.1,19.4,5.2l28.9-10.6c6.6,5.1,13.9,9.4,21.7,12.6l5.3,30.3c0,7.8,6.4,14.2,14.2,14.2h28.4
			  c7.9,0,14.2-6.4,14.2-14.2l5.3-30.3c7.9-3.2,15.1-7.4,21.7-12.6l28.9,10.6c6.8,3.9,15.5,1.6,19.4-5.2l14.2-24.6
			  C248.1,172.9,245.7,164.2,238.9,160.3z M126.2,176.6c-26.8,0-48.6-21.7-48.6-48.6c0-26.8,21.7-48.6,48.6-48.6
			  c26.8,0,48.5,21.7,48.5,48.6C174.7,154.8,153,176.6,126.2,176.6z"/>
    </symbol>
  </defs>
</svg>